# xmcd CD database file
#
# Track frame offsets:
#	183
#	12878
#	24428
#	37583
#	51298
#	65815
#	78793
#	92600
#	105145
#	115115
#	127245
#	140360
#	153508
#	165975
#	176748
#	189353
#
# Disc length: 2686 seconds
#
# Revision: 2
# Processed by: cddbd v1.4b41PL1 Copyright (c) Steve Scherf et al.
# Submitted via: Feurio! 1.50.2ß - http://www.feurio.com
#
DISCID=bd0a7c10
DTITLE=John Lee Hooker - Mambo Chillun
DYEAR=1900
DGENRE=
TTITLE0=Mambo Chillun
TTITLE1=Wheel And Deal
TTITLE2=Unfriendly Woman
TTITLE3=Time Is Marchin'
TTITLE4=I'm So Worried Baby
TTITLE5=Baby Lee
TTITLE6=The Road Is So Rough
TTITLE7=Trouble Blues
TTITLE8=Stop Talking
TTITLE9=Everybody's Rockin'
TTITLE10=I'm So Excited
TTITLE11=I See You When You're Weak
TTITLE12=Crawlin' Black Spider
TTITLE13=Little Fine Woman
TTITLE14=Rosie Mae
TTITLE15=You Can Lead Me Baby
EXTD=
EXTT0=
EXTT1=
EXTT2=
EXTT3=
EXTT4=
EXTT5=
EXTT6=
EXTT7=
EXTT8=
EXTT9=
EXTT10=
EXTT11=
EXTT12=
EXTT13=
EXTT14=
EXTT15=
PLAYORDER=
